# xmcd
#
# Track frame offsets: 
#        150
#        12151
#        23216
#        36017
#        47453
#        58397
#        74701
#        88315
#        106071
#        116619
#        132491
#        145697
#        160292
#        181487
#        197066
#
# Disc length: 2876 seconds
#
# Revision: 0
# Processed by: cddbd v1.5.2PL0 Copyright (c) Steve Scherf et al.
# Submitted via: ExactAudioCopy v0.95b4
#
DISCID=d70b3a0f
DTITLE=Peter Kraus - 15 Lieder
DYEAR=2008
DGENRE=Country
TTITLE0=Schwarze Rose, Rosemarie
TTITLE1=Im Jahr Tutti Frutti
TTITLE2=Das Alte Haus Vom Rocky Docky
TTITLE3=Schau Keinen Anderen Mann An
TTITLE4=Liebelei
TTITLE5=Mein Sugarbaby Bist Noch Immer Du
TTITLE6=Petticoat Sue
TTITLE7=Der Champion Heisst Rock'N'Roll
TTITLE8=Susi Rock
TTITLE9=Du Hast Zuviel Gefühl
TTITLE10=Viel Zu Jung
TTITLE11=Eigentlich Ist Alles Rock'N'Roll
TTITLE12=Dann Bist Du Mein Fall
TTITLE13=Und Sein Name War James Dean
TTITLE14=Peter's Hit Medley
EXTD=
EXTT0=
EXTT1=
EXTT2=
EXTT3=
EXTT4=
EXTT5=
EXTT6=
EXTT7=
EXTT8=
EXTT9=
EXTT10=
EXTT11=
EXTT12=
EXTT13=
EXTT14=
PLAYORDER=
